<mxfile host="app.diagrams.net" agent="Mozilla/5.0 (Windows NT 10.0; Win64; x64) AppleWebKit/537.36 (KHTML, like Gecko) Chrome/132.0.0.0 Safari/537.36" version="26.0.10">
  <diagram name="Page-1" id="jHKWkkExiyFuxQJjI6Tc">
    <mxGraphModel dx="1434" dy="772" grid="1" gridSize="10" guides="1" tooltips="1" connect="1" arrows="1" fold="1" page="1" pageScale="1" pageWidth="850" pageHeight="1100" background="none" math="0" shadow="0">
      <root>
        <mxCell id="0" />
        <mxCell id="1" parent="0" />
        <mxCell id="hKmGcdX8R-PQ6Mxp-qey-51" value="" style="edgeStyle=orthogonalEdgeStyle;rounded=0;orthogonalLoop=1;jettySize=auto;html=1;" edge="1" parent="1" source="hKmGcdX8R-PQ6Mxp-qey-1" target="hKmGcdX8R-PQ6Mxp-qey-10">
          <mxGeometry relative="1" as="geometry" />
        </mxCell>
        <mxCell id="hKmGcdX8R-PQ6Mxp-qey-1" value="UBUNTU 22.04&lt;div&gt;PRO SERVER&lt;/div&gt;" style="ellipse;shape=cloud;whiteSpace=wrap;html=1;" vertex="1" parent="1">
          <mxGeometry x="330" y="280" width="220" height="120" as="geometry" />
        </mxCell>
        <mxCell id="hKmGcdX8R-PQ6Mxp-qey-10" value="VPS&amp;nbsp;" style="shape=cylinder3;whiteSpace=wrap;html=1;boundedLbl=1;backgroundOutline=1;size=15;" vertex="1" parent="1">
          <mxGeometry x="410" y="160" width="60" height="80" as="geometry" />
        </mxCell>
        <mxCell id="hKmGcdX8R-PQ6Mxp-qey-13" value="Client" style="rhombus;whiteSpace=wrap;html=1;" vertex="1" parent="1">
          <mxGeometry x="480" y="560" width="80" height="80" as="geometry" />
        </mxCell>
        <mxCell id="hKmGcdX8R-PQ6Mxp-qey-19" value="SCOPE" style="swimlane;fontStyle=0;childLayout=stackLayout;horizontal=1;startSize=30;horizontalStack=0;resizeParent=1;resizeParentMax=0;resizeLast=0;collapsible=1;marginBottom=0;whiteSpace=wrap;html=1;" vertex="1" parent="1">
          <mxGeometry x="40" y="40" width="200" height="360" as="geometry">
            <mxRectangle x="80" y="120" width="80" height="30" as="alternateBounds" />
          </mxGeometry>
        </mxCell>
        <mxCell id="hKmGcdX8R-PQ6Mxp-qey-20" value="Internet - Connection" style="text;strokeColor=none;fillColor=default;align=center;verticalAlign=middle;spacingLeft=4;spacingRight=4;overflow=hidden;points=[[0,0.5],[1,0.5]];portConstraint=eastwest;rotatable=0;whiteSpace=wrap;html=1;" vertex="1" parent="hKmGcdX8R-PQ6Mxp-qey-19">
          <mxGeometry y="30" width="200" height="30" as="geometry" />
        </mxCell>
        <mxCell id="hKmGcdX8R-PQ6Mxp-qey-21" value="VPN | VPS" style="text;strokeColor=none;fillColor=default;align=center;verticalAlign=middle;spacingLeft=4;spacingRight=4;overflow=hidden;points=[[0,0.5],[1,0.5]];portConstraint=eastwest;rotatable=0;whiteSpace=wrap;html=1;" vertex="1" parent="hKmGcdX8R-PQ6Mxp-qey-19">
          <mxGeometry y="60" width="200" height="30" as="geometry" />
        </mxCell>
        <mxCell id="hKmGcdX8R-PQ6Mxp-qey-89" value="IP RANGE&lt;div&gt;10.0.0.2-10&lt;/div&gt;" style="text;strokeColor=none;fillColor=default;align=center;verticalAlign=middle;spacingLeft=4;spacingRight=4;overflow=hidden;points=[[0,0.5],[1,0.5]];portConstraint=eastwest;rotatable=0;whiteSpace=wrap;html=1;" vertex="1" parent="hKmGcdX8R-PQ6Mxp-qey-19">
          <mxGeometry y="90" width="200" height="30" as="geometry" />
        </mxCell>
        <mxCell id="hKmGcdX8R-PQ6Mxp-qey-87" value="VPN | SERVER (Outside DHCP RANGE)" style="text;strokeColor=none;fillColor=default;align=center;verticalAlign=middle;spacingLeft=4;spacingRight=4;overflow=hidden;points=[[0,0.5],[1,0.5]];portConstraint=eastwest;rotatable=0;whiteSpace=wrap;html=1;" vertex="1" parent="hKmGcdX8R-PQ6Mxp-qey-19">
          <mxGeometry y="120" width="200" height="30" as="geometry" />
        </mxCell>
        <mxCell id="hKmGcdX8R-PQ6Mxp-qey-86" value="DNS: Bind9 or Duck-Dns" style="text;strokeColor=none;fillColor=default;align=center;verticalAlign=middle;spacingLeft=4;spacingRight=4;overflow=hidden;points=[[0,0.5],[1,0.5]];portConstraint=eastwest;rotatable=0;whiteSpace=wrap;html=1;" vertex="1" parent="hKmGcdX8R-PQ6Mxp-qey-19">
          <mxGeometry y="150" width="200" height="30" as="geometry" />
        </mxCell>
        <mxCell id="hKmGcdX8R-PQ6Mxp-qey-85" value="HOST FILE with above information" style="text;strokeColor=none;fillColor=default;align=center;verticalAlign=middle;spacingLeft=4;spacingRight=4;overflow=hidden;points=[[0,0.5],[1,0.5]];portConstraint=eastwest;rotatable=0;whiteSpace=wrap;html=1;" vertex="1" parent="hKmGcdX8R-PQ6Mxp-qey-19">
          <mxGeometry y="180" width="200" height="30" as="geometry" />
        </mxCell>
        <mxCell id="hKmGcdX8R-PQ6Mxp-qey-84" style="text;strokeColor=none;fillColor=default;align=center;verticalAlign=middle;spacingLeft=4;spacingRight=4;overflow=hidden;points=[[0,0.5],[1,0.5]];portConstraint=eastwest;rotatable=0;whiteSpace=wrap;html=1;" vertex="1" parent="hKmGcdX8R-PQ6Mxp-qey-19">
          <mxGeometry y="210" width="200" height="30" as="geometry" />
        </mxCell>
        <mxCell id="hKmGcdX8R-PQ6Mxp-qey-83" style="text;strokeColor=none;fillColor=default;align=center;verticalAlign=middle;spacingLeft=4;spacingRight=4;overflow=hidden;points=[[0,0.5],[1,0.5]];portConstraint=eastwest;rotatable=0;whiteSpace=wrap;html=1;" vertex="1" parent="hKmGcdX8R-PQ6Mxp-qey-19">
          <mxGeometry y="240" width="200" height="30" as="geometry" />
        </mxCell>
        <mxCell id="hKmGcdX8R-PQ6Mxp-qey-82" style="text;strokeColor=none;fillColor=default;align=center;verticalAlign=middle;spacingLeft=4;spacingRight=4;overflow=hidden;points=[[0,0.5],[1,0.5]];portConstraint=eastwest;rotatable=0;whiteSpace=wrap;html=1;" vertex="1" parent="hKmGcdX8R-PQ6Mxp-qey-19">
          <mxGeometry y="270" width="200" height="30" as="geometry" />
        </mxCell>
        <mxCell id="hKmGcdX8R-PQ6Mxp-qey-81" style="text;strokeColor=none;fillColor=default;align=center;verticalAlign=middle;spacingLeft=4;spacingRight=4;overflow=hidden;points=[[0,0.5],[1,0.5]];portConstraint=eastwest;rotatable=0;whiteSpace=wrap;html=1;" vertex="1" parent="hKmGcdX8R-PQ6Mxp-qey-19">
          <mxGeometry y="300" width="200" height="30" as="geometry" />
        </mxCell>
        <mxCell id="hKmGcdX8R-PQ6Mxp-qey-80" style="text;strokeColor=none;fillColor=default;align=center;verticalAlign=middle;spacingLeft=4;spacingRight=4;overflow=hidden;points=[[0,0.5],[1,0.5]];portConstraint=eastwest;rotatable=0;whiteSpace=wrap;html=1;" vertex="1" parent="hKmGcdX8R-PQ6Mxp-qey-19">
          <mxGeometry y="330" width="200" height="30" as="geometry" />
        </mxCell>
        <mxCell id="hKmGcdX8R-PQ6Mxp-qey-34" value="JK Linux Network" style="shape=process;whiteSpace=wrap;html=1;backgroundOutline=1;" vertex="1" parent="1">
          <mxGeometry x="600" y="40" width="200" height="80" as="geometry" />
        </mxCell>
        <mxCell id="hKmGcdX8R-PQ6Mxp-qey-36" value="VPN" style="shape=cylinder3;whiteSpace=wrap;html=1;boundedLbl=1;backgroundOutline=1;size=15;" vertex="1" parent="1">
          <mxGeometry x="410" y="440" width="60" height="80" as="geometry" />
        </mxCell>
        <mxCell id="hKmGcdX8R-PQ6Mxp-qey-39" value="Client" style="rhombus;whiteSpace=wrap;html=1;" vertex="1" parent="1">
          <mxGeometry x="520" y="520" width="80" height="80" as="geometry" />
        </mxCell>
        <mxCell id="hKmGcdX8R-PQ6Mxp-qey-40" value="Client" style="rhombus;whiteSpace=wrap;html=1;" vertex="1" parent="1">
          <mxGeometry x="560" y="560" width="80" height="80" as="geometry" />
        </mxCell>
        <mxCell id="hKmGcdX8R-PQ6Mxp-qey-41" value="&lt;span&gt;INTERNET&lt;/span&gt;" style="rounded=0;html=1;labelBackgroundColor=none;fontColor=#000000;whiteSpace=wrap;" vertex="1" parent="1">
          <mxGeometry x="380" y="40" width="120" height="60" as="geometry" />
        </mxCell>
        <mxCell id="hKmGcdX8R-PQ6Mxp-qey-47" value="" style="endArrow=classic;startArrow=classic;html=1;rounded=0;entryX=0.5;entryY=1;entryDx=0;entryDy=0;" edge="1" parent="1" source="hKmGcdX8R-PQ6Mxp-qey-10" target="hKmGcdX8R-PQ6Mxp-qey-41">
          <mxGeometry width="50" height="50" relative="1" as="geometry">
            <mxPoint x="360" y="200" as="sourcePoint" />
            <mxPoint x="410" y="150" as="targetPoint" />
          </mxGeometry>
        </mxCell>
        <mxCell id="hKmGcdX8R-PQ6Mxp-qey-48" value="" style="endArrow=classic;startArrow=classic;html=1;rounded=0;exitX=0.498;exitY=0.167;exitDx=0;exitDy=0;exitPerimeter=0;" edge="1" parent="1" source="hKmGcdX8R-PQ6Mxp-qey-1" target="hKmGcdX8R-PQ6Mxp-qey-10">
          <mxGeometry width="50" height="50" relative="1" as="geometry">
            <mxPoint x="440" y="290" as="sourcePoint" />
            <mxPoint x="439.5" y="240" as="targetPoint" />
          </mxGeometry>
        </mxCell>
        <mxCell id="hKmGcdX8R-PQ6Mxp-qey-49" value="" style="endArrow=classic;startArrow=classic;html=1;rounded=0;exitX=0.5;exitY=0;exitDx=0;exitDy=0;entryX=0.5;entryY=1;entryDx=0;entryDy=0;entryPerimeter=0;" edge="1" parent="1" source="hKmGcdX8R-PQ6Mxp-qey-39" target="hKmGcdX8R-PQ6Mxp-qey-36">
          <mxGeometry width="50" height="50" relative="1" as="geometry">
            <mxPoint x="500" y="569.96" as="sourcePoint" />
            <mxPoint x="500" y="520" as="targetPoint" />
          </mxGeometry>
        </mxCell>
        <mxCell id="hKmGcdX8R-PQ6Mxp-qey-52" value="" style="endArrow=classic;startArrow=classic;html=1;rounded=0;exitX=0.5;exitY=0;exitDx=0;exitDy=0;exitPerimeter=0;entryX=0.5;entryY=0.917;entryDx=0;entryDy=0;entryPerimeter=0;" edge="1" parent="1">
          <mxGeometry width="50" height="50" relative="1" as="geometry">
            <mxPoint x="439.5" y="444.98" as="sourcePoint" />
            <mxPoint x="439.5" y="395.02" as="targetPoint" />
          </mxGeometry>
        </mxCell>
        <mxCell id="hKmGcdX8R-PQ6Mxp-qey-67" value="USER STORY" style="text;strokeColor=none;fillColor=default;align=center;verticalAlign=middle;spacingLeft=4;spacingRight=4;overflow=hidden;points=[[0,0.5],[1,0.5]];portConstraint=eastwest;rotatable=0;whiteSpace=wrap;html=1;" vertex="1" parent="1">
          <mxGeometry x="600" y="120" width="200" height="30" as="geometry" />
        </mxCell>
        <mxCell id="hKmGcdX8R-PQ6Mxp-qey-68" value="Admin can Login to Server" style="text;strokeColor=none;fillColor=default;align=center;verticalAlign=middle;spacingLeft=4;spacingRight=4;overflow=hidden;points=[[0,0.5],[1,0.5]];portConstraint=eastwest;rotatable=0;whiteSpace=wrap;html=1;" vertex="1" parent="1">
          <mxGeometry x="600" y="150" width="200" height="30" as="geometry" />
        </mxCell>
        <mxCell id="hKmGcdX8R-PQ6Mxp-qey-69" value="Admin can add new users" style="text;strokeColor=none;fillColor=default;align=center;verticalAlign=middle;spacingLeft=4;spacingRight=4;overflow=hidden;points=[[0,0.5],[1,0.5]];portConstraint=eastwest;rotatable=0;whiteSpace=wrap;html=1;" vertex="1" parent="1">
          <mxGeometry x="600" y="180" width="200" height="30" as="geometry" />
        </mxCell>
        <mxCell id="hKmGcdX8R-PQ6Mxp-qey-70" value="Admin changes default passwords" style="text;strokeColor=none;fillColor=default;align=center;verticalAlign=middle;spacingLeft=4;spacingRight=4;overflow=hidden;points=[[0,0.5],[1,0.5]];portConstraint=eastwest;rotatable=0;whiteSpace=wrap;html=1;" vertex="1" parent="1">
          <mxGeometry x="600" y="210" width="200" height="30" as="geometry" />
        </mxCell>
        <mxCell id="hKmGcdX8R-PQ6Mxp-qey-71" value="Admin Installs tools server needs to function" style="text;strokeColor=none;fillColor=default;align=center;verticalAlign=middle;spacingLeft=4;spacingRight=4;overflow=hidden;points=[[0,0.5],[1,0.5]];portConstraint=eastwest;rotatable=0;whiteSpace=wrap;html=1;" vertex="1" parent="1">
          <mxGeometry x="600" y="240" width="200" height="30" as="geometry" />
        </mxCell>
        <mxCell id="hKmGcdX8R-PQ6Mxp-qey-72" value="Client Computers OS&#39;s installed" style="text;strokeColor=none;fillColor=default;align=center;verticalAlign=middle;spacingLeft=4;spacingRight=4;overflow=hidden;points=[[0,0.5],[1,0.5]];portConstraint=eastwest;rotatable=0;whiteSpace=wrap;html=1;" vertex="1" parent="1">
          <mxGeometry x="600" y="270" width="200" height="30" as="geometry" />
        </mxCell>
        <mxCell id="hKmGcdX8R-PQ6Mxp-qey-73" value="IP ADDRESS RANGES SET&amp;nbsp;" style="text;strokeColor=none;fillColor=default;align=center;verticalAlign=middle;spacingLeft=4;spacingRight=4;overflow=hidden;points=[[0,0.5],[1,0.5]];portConstraint=eastwest;rotatable=0;whiteSpace=wrap;html=1;" vertex="1" parent="1">
          <mxGeometry x="600" y="300" width="200" height="30" as="geometry" />
        </mxCell>
        <mxCell id="hKmGcdX8R-PQ6Mxp-qey-74" value="DNS CONFIGURED" style="text;strokeColor=none;fillColor=default;align=center;verticalAlign=middle;spacingLeft=4;spacingRight=4;overflow=hidden;points=[[0,0.5],[1,0.5]];portConstraint=eastwest;rotatable=0;whiteSpace=wrap;html=1;" vertex="1" parent="1">
          <mxGeometry x="600" y="330" width="200" height="30" as="geometry" />
        </mxCell>
        <mxCell id="hKmGcdX8R-PQ6Mxp-qey-75" value="ICMP REQUEST SENT TO TEST FULL NETWORK" style="text;strokeColor=none;fillColor=default;align=center;verticalAlign=middle;spacingLeft=4;spacingRight=4;overflow=hidden;points=[[0,0.5],[1,0.5]];portConstraint=eastwest;rotatable=0;whiteSpace=wrap;html=1;" vertex="1" parent="1">
          <mxGeometry x="600" y="360" width="200" height="30" as="geometry" />
        </mxCell>
        <mxCell id="hKmGcdX8R-PQ6Mxp-qey-76" value="Once done User is ready to Harden the server" style="text;strokeColor=none;fillColor=default;align=center;verticalAlign=middle;spacingLeft=4;spacingRight=4;overflow=hidden;points=[[0,0.5],[1,0.5]];portConstraint=eastwest;rotatable=0;whiteSpace=wrap;html=1;" vertex="1" parent="1">
          <mxGeometry x="600" y="390" width="200" height="40" as="geometry" />
        </mxCell>
      </root>
    </mxGraphModel>
  </diagram>
</mxfile>
